<mxfile host="drawio-plugin" modified="2021-03-08T12:15:51.175Z" agent="5.0 (Macintosh; Intel Mac OS X 10_15_7) AppleWebKit/537.36 (KHTML, like Gecko) Chrome/84.0.4147.105 Safari/537.36" etag="3OW5sC_GD-bPzFNZnagI" version="13.7.9" type="embed"><diagram id="7a2RZcK-Xr8AZXKaNGfy" name="Page-1"><mxGraphModel dx="1332" dy="695" grid="1" gridSize="10" guides="1" tooltips="1" connect="1" arrows="1" fold="1" page="1" pageScale="1" pageWidth="850" pageHeight="1100" math="0" shadow="0"><root><mxCell id="0"/><mxCell id="1" parent="0"/><mxCell id="aOXkhVarUdB6gYOYam7E-18" value="CFN&#10;" style="dashed=0;verticalAlign=top;fontStyle=0;fillColor=#2A2A2A;" parent="1" vertex="1"><mxGeometry x="300" y="170" width="340" height="320" as="geometry"/></mxCell><mxCell id="aOXkhVarUdB6gYOYam7E-27" value="Master Stack" style="fillColor=none;strokeColor=#5A6C86;dashed=1;verticalAlign=top;fontStyle=0;fontColor=#5A6C86;" parent="1" vertex="1"><mxGeometry x="680" y="170" width="130" height="320" as="geometry"/></mxCell><mxCell id="aOXkhVarUdB6gYOYam7E-7" style="edgeStyle=orthogonalEdgeStyle;rounded=0;orthogonalLoop=1;jettySize=auto;html=1;" parent="1" source="aOXkhVarUdB6gYOYam7E-25" target="aOXkhVarUdB6gYOYam7E-6" edge="1"><mxGeometry relative="1" as="geometry"><mxPoint x="280" y="240" as="sourcePoint"/></mxGeometry></mxCell><mxCell id="aOXkhVarUdB6gYOYam7E-4" style="edgeStyle=orthogonalEdgeStyle;rounded=0;orthogonalLoop=1;jettySize=auto;html=1;" parent="1" source="aOXkhVarUdB6gYOYam7E-24" target="aOXkhVarUdB6gYOYam7E-23" edge="1"><mxGeometry relative="1" as="geometry"><mxPoint x="230" y="470" as="sourcePoint"/><mxPoint x="400" y="551.1600000000001" as="targetPoint"/></mxGeometry></mxCell><mxCell id="aOXkhVarUdB6gYOYam7E-10" value="config&amp;nbsp;" style="edgeStyle=orthogonalEdgeStyle;rounded=0;orthogonalLoop=1;jettySize=auto;html=1;" parent="1" source="aOXkhVarUdB6gYOYam7E-23" target="aOXkhVarUdB6gYOYam7E-9" edge="1"><mxGeometry relative="1" as="geometry"><mxPoint x="475" y="545" as="sourcePoint"/></mxGeometry></mxCell><mxCell id="aOXkhVarUdB6gYOYam7E-8" value="" style="edgeStyle=orthogonalEdgeStyle;rounded=0;orthogonalLoop=1;jettySize=auto;html=1;entryX=0.469;entryY=0;entryDx=0;entryDy=0;entryPerimeter=0;" parent="1" source="aOXkhVarUdB6gYOYam7E-6" target="aOXkhVarUdB6gYOYam7E-23" edge="1"><mxGeometry relative="1" as="geometry"><mxPoint x="437.5" y="510" as="targetPoint"/></mxGeometry></mxCell><mxCell id="aOXkhVarUdB6gYOYam7E-6" value="Amazon Kinesis" style="outlineConnect=0;fontColor=#232F3E;gradientColor=none;strokeColor=#ffffff;fillColor=#232F3E;dashed=0;verticalLabelPosition=middle;verticalAlign=bottom;align=center;html=1;whiteSpace=wrap;fontSize=10;fontStyle=1;spacing=3;shape=mxgraph.aws4.productIcon;prIcon=mxgraph.aws4.kinesis;" parent="1" vertex="1"><mxGeometry x="328" y="195" width="80" height="105" as="geometry"/></mxCell><mxCell id="aOXkhVarUdB6gYOYam7E-13" value="trigger event stream&amp;nbsp;" style="edgeStyle=orthogonalEdgeStyle;rounded=0;orthogonalLoop=1;jettySize=auto;html=1;" parent="1" source="aOXkhVarUdB6gYOYam7E-9" target="aOXkhVarUdB6gYOYam7E-12" edge="1"><mxGeometry x="0.1398" relative="1" as="geometry"><mxPoint x="760" y="363" as="sourcePoint"/><Array as="points"><mxPoint x="500" y="380"/></Array><mxPoint x="1" as="offset"/></mxGeometry></mxCell><mxCell id="aOXkhVarUdB6gYOYam7E-9" value="Dynamdb(paramter)" style="outlineConnect=0;fontColor=#232F3E;gradientColor=none;strokeColor=#ffffff;fillColor=#232F3E;dashed=0;verticalLabelPosition=middle;verticalAlign=bottom;align=center;html=1;whiteSpace=wrap;fontSize=10;fontStyle=1;spacing=3;shape=mxgraph.aws4.productIcon;prIcon=mxgraph.aws4.dynamodb;" parent="1" vertex="1"><mxGeometry x="710" y="362.5" width="70" height="95" as="geometry"/></mxCell><mxCell id="aOXkhVarUdB6gYOYam7E-16" style="edgeStyle=orthogonalEdgeStyle;rounded=0;orthogonalLoop=1;jettySize=auto;html=1;" parent="1" source="aOXkhVarUdB6gYOYam7E-12" target="aOXkhVarUdB6gYOYam7E-15" edge="1"><mxGeometry relative="1" as="geometry"/></mxCell><mxCell id="aOXkhVarUdB6gYOYam7E-17" value="submit job with config&amp;nbsp;" style="edgeLabel;html=1;align=center;verticalAlign=middle;resizable=0;points=[];" parent="aOXkhVarUdB6gYOYam7E-16" vertex="1" connectable="0"><mxGeometry x="-0.45" y="-1" relative="1" as="geometry"><mxPoint x="19" y="-1" as="offset"/></mxGeometry></mxCell><mxCell id="aOXkhVarUdB6gYOYam7E-12" value="AWS Lambda" style="outlineConnect=0;fontColor=#232F3E;gradientColor=none;strokeColor=#ffffff;fillColor=#232F3E;dashed=0;verticalLabelPosition=middle;verticalAlign=bottom;align=center;html=1;whiteSpace=wrap;fontSize=10;fontStyle=1;spacing=3;shape=mxgraph.aws4.productIcon;prIcon=mxgraph.aws4.lambda;" parent="1" vertex="1"><mxGeometry x="460" y="210" width="70" height="100" as="geometry"/></mxCell><mxCell id="aOXkhVarUdB6gYOYam7E-15" value="EMR(paramter)" style="outlineConnect=0;fontColor=#232F3E;gradientColor=none;strokeColor=#ffffff;fillColor=#232F3E;dashed=0;verticalLabelPosition=middle;verticalAlign=bottom;align=center;html=1;whiteSpace=wrap;fontSize=10;fontStyle=1;spacing=3;shape=mxgraph.aws4.productIcon;prIcon=mxgraph.aws4.emr;" parent="1" vertex="1"><mxGeometry x="710" y="220" width="80" height="100" as="geometry"/></mxCell><mxCell id="aOXkhVarUdB6gYOYam7E-20" style="edgeStyle=orthogonalEdgeStyle;rounded=0;orthogonalLoop=1;jettySize=auto;html=1;" parent="1" source="aOXkhVarUdB6gYOYam7E-19" target="aOXkhVarUdB6gYOYam7E-24" edge="1"><mxGeometry relative="1" as="geometry"><mxPoint x="131.4670000000001" y="430" as="targetPoint"/><Array as="points"><mxPoint x="180" y="330"/></Array></mxGeometry></mxCell><mxCell id="aOXkhVarUdB6gYOYam7E-21" style="edgeStyle=orthogonalEdgeStyle;rounded=0;orthogonalLoop=1;jettySize=auto;html=1;" parent="1" source="aOXkhVarUdB6gYOYam7E-19" target="aOXkhVarUdB6gYOYam7E-25" edge="1"><mxGeometry relative="1" as="geometry"><mxPoint x="220" y="270" as="targetPoint"/><Array as="points"><mxPoint x="180" y="330"/></Array></mxGeometry></mxCell><mxCell id="aOXkhVarUdB6gYOYam7E-19" value="" style="outlineConnect=0;fontColor=#232F3E;gradientColor=none;fillColor=#232F3E;strokeColor=none;dashed=0;verticalLabelPosition=bottom;verticalAlign=top;align=center;html=1;fontSize=12;fontStyle=0;aspect=fixed;pointerEvents=1;shape=mxgraph.aws4.users;" parent="1" vertex="1"><mxGeometry x="29.85" y="291" width="78" height="78" as="geometry"/></mxCell><mxCell id="aOXkhVarUdB6gYOYam7E-23" value="AWS Lambda" style="outlineConnect=0;fontColor=#232F3E;gradientColor=none;strokeColor=#ffffff;fillColor=#232F3E;dashed=0;verticalLabelPosition=middle;verticalAlign=bottom;align=center;html=1;whiteSpace=wrap;fontSize=10;fontStyle=1;spacing=3;shape=mxgraph.aws4.productIcon;prIcon=mxgraph.aws4.lambda;" parent="1" vertex="1"><mxGeometry x="380" y="362.5" width="80" height="100" as="geometry"/></mxCell><mxCell id="aOXkhVarUdB6gYOYam7E-24" value="Logs on S3" style="outlineConnect=0;fontColor=#232F3E;gradientColor=none;strokeColor=#ffffff;fillColor=#232F3E;dashed=0;verticalLabelPosition=middle;verticalAlign=bottom;align=center;html=1;whiteSpace=wrap;fontSize=10;fontStyle=1;spacing=3;shape=mxgraph.aws4.productIcon;prIcon=mxgraph.aws4.s3;" parent="1" vertex="1"><mxGeometry x="140" y="363" width="80" height="100" as="geometry"/></mxCell><mxCell id="aOXkhVarUdB6gYOYam7E-25" value="Amazon CloudWatch logs" style="outlineConnect=0;fontColor=#232F3E;gradientColor=none;strokeColor=#ffffff;fillColor=#232F3E;dashed=0;verticalLabelPosition=middle;verticalAlign=bottom;align=center;html=1;whiteSpace=wrap;fontSize=10;fontStyle=1;spacing=3;shape=mxgraph.aws4.productIcon;prIcon=mxgraph.aws4.cloudwatch;" parent="1" vertex="1"><mxGeometry x="141" y="193" width="80" height="110" as="geometry"/></mxCell><mxCell id="aOXkhVarUdB6gYOYam7E-26" value="Parameters" style="fillColor=none;strokeColor=#5A6C86;dashed=1;verticalAlign=top;fontStyle=0;fontColor=#5A6C86;" parent="1" vertex="1"><mxGeometry x="120" y="170" width="130" height="320" as="geometry"/></mxCell></root></mxGraphModel></diagram></mxfile>